<svg xmlns="http://www.w3.org/2000/svg" width="1200" height="760" viewBox="0 0 1200 760">
  <defs>
    <linearGradient id="bg3" x1="0" y1="0" x2="1" y2="1">
      <stop offset="0%" stop-color="#052e16"/>
      <stop offset="100%" stop-color="#14532d"/>
    </linearGradient>
  </defs>
  <rect width="1200" height="760" fill="url(#bg3)"/>
  <circle cx="220" cy="120" r="80" fill="#86efac" fill-opacity="0.18"/>
  <circle cx="1040" cy="650" r="85" fill="#22c55e" fill-opacity="0.2"/>

  <rect x="120" y="250" width="130" height="300" rx="24" fill="#dcfce7" fill-opacity="0.15" stroke="#86efac" stroke-width="5"/>
  <rect x="300" y="190" width="160" height="360" rx="28" fill="#dcfce7" fill-opacity="0.15" stroke="#86efac" stroke-width="5"/>
  <rect x="520" y="280" width="120" height="270" rx="22" fill="#dcfce7" fill-opacity="0.15" stroke="#86efac" stroke-width="5"/>

  <rect x="132" y="430" width="106" height="110" rx="16" fill="#22c55e" fill-opacity="0.8"/>
  <rect x="316" y="370" width="128" height="170" rx="18" fill="#4ade80" fill-opacity="0.78"/>
  <rect x="534" y="450" width="92" height="90" rx="14" fill="#16a34a" fill-opacity="0.85"/>

  <circle cx="400" cy="150" r="12" fill="#bbf7d0"/>
  <circle cx="430" cy="115" r="10" fill="#bbf7d0"/>
  <circle cx="463" cy="86" r="7" fill="#bbf7d0"/>

  <line x1="760" y1="260" x2="840" y2="300" stroke="#86efac" stroke-width="5"/>
  <line x1="840" y1="300" x2="915" y2="250" stroke="#86efac" stroke-width="5"/>
  <line x1="915" y1="250" x2="995" y2="300" stroke="#86efac" stroke-width="5"/>
  <line x1="840" y1="300" x2="910" y2="360" stroke="#86efac" stroke-width="5"/>
  <line x1="910" y1="360" x2="995" y2="300" stroke="#86efac" stroke-width="5"/>
  <circle cx="760" cy="260" r="15" fill="#4ade80"/>
  <circle cx="840" cy="300" r="15" fill="#4ade80"/>
  <circle cx="915" cy="250" r="15" fill="#4ade80"/>
  <circle cx="995" cy="300" r="15" fill="#4ade80"/>
  <circle cx="910" cy="360" r="15" fill="#4ade80"/>

  <text x="120" y="110" fill="#dcfce7" font-size="62" font-family="Arial, sans-serif" font-weight="700">Химический vibe</text>
</svg>
